<svg xmlns="http://www.w3.org/2000/svg" viewBox="0 0 512 512" fill="none">
  <defs>
    <linearGradient id="bg" x1="0" y1="0" x2="1" y2="1">
      <stop offset="0%" stop-color="#10b981"/>
      <stop offset="100%" stop-color="#25d366"/>
    </linearGradient>
  </defs>
  <rect width="512" height="512" rx="112" fill="url(#bg)"/>
  <path d="M136 148 h240 a36 36 0 0 1 36 36 v144 a36 36 0 0 1-36 36 H236 l-60 52 v-52 H176 a36 36 0 0 1-36-36 V184 a36 36 0 0 1 36-36z" fill="white" fill-opacity="0.93"/>
  <circle cx="216" cy="256" r="16" fill="#10b981"/>
  <circle cx="296" cy="256" r="16" fill="#10b981"/>
  <circle cx="256" cy="216" r="12" fill="#059669"/>
  <circle cx="256" cy="296" r="12" fill="#059669"/>
  <line x1="232" y1="248" x2="248" y2="228" stroke="#059669" stroke-width="5" stroke-linecap="round"/>
  <line x1="264" y1="228" x2="280" y2="248" stroke="#059669" stroke-width="5" stroke-linecap="round"/>
  <line x1="232" y1="264" x2="248" y2="284" stroke="#059669" stroke-width="5" stroke-linecap="round"/>
  <line x1="264" y1="284" x2="280" y2="264" stroke="#059669" stroke-width="5" stroke-linecap="round"/>
  <circle cx="256" cy="256" r="10" fill="#047857"/>
</svg>
